<svg id="visual" viewBox="0 0 900 450" width="900" height="450" xmlns="http://www.w3.org/2000/svg" xmlns:xlink="http://www.w3.org/1999/xlink" version="1.1"><rect x="0" y="0" width="900" height="450" fill="#242424"></rect><path d="M0 263L21.5 271.3C43 279.7 86 296.3 128.8 299.7C171.7 303 214.3 293 257.2 286.2C300 279.3 343 275.7 385.8 283.8C428.7 292 471.3 312 514.2 313.7C557 315.3 600 298.7 642.8 295C685.7 291.3 728.3 300.7 771.2 302.3C814 304 857 298 878.5 295L900 292L900 451L878.5 451C857 451 814 451 771.2 451C728.3 451 685.7 451 642.8 451C600 451 557 451 514.2 451C471.3 451 428.7 451 385.8 451C343 451 300 451 257.2 451C214.3 451 171.7 451 128.8 451C86 451 43 451 21.5 451L0 451Z" fill="#c6e7ff"></path><path d="M0 302L21.5 307.3C43 312.7 86 323.3 128.8 332.7C171.7 342 214.3 350 257.2 351.5C300 353 343 348 385.8 345.8C428.7 343.7 471.3 344.3 514.2 345.7C557 347 600 349 642.8 344.3C685.7 339.7 728.3 328.3 771.2 326C814 323.7 857 330.3 878.5 333.7L900 337L900 451L878.5 451C857 451 814 451 771.2 451C728.3 451 685.7 451 642.8 451C600 451 557 451 514.2 451C471.3 451 428.7 451 385.8 451C343 451 300 451 257.2 451C214.3 451 171.7 451 128.8 451C86 451 43 451 21.5 451L0 451Z" fill="#97cbfd"></path><path d="M0 378L21.5 376C43 374 86 370 128.8 365.7C171.7 361.3 214.3 356.7 257.2 358C300 359.3 343 366.7 385.8 367.3C428.7 368 471.3 362 514.2 362.8C557 363.7 600 371.3 642.8 367.7C685.7 364 728.3 349 771.2 344.5C814 340 857 346 878.5 349L900 352L900 451L878.5 451C857 451 814 451 771.2 451C728.3 451 685.7 451 642.8 451C600 451 557 451 514.2 451C471.3 451 428.7 451 385.8 451C343 451 300 451 257.2 451C214.3 451 171.7 451 128.8 451C86 451 43 451 21.5 451L0 451Z" fill="#73acf9"></path><path d="M0 381L21.5 380.8C43 380.7 86 380.3 128.8 379.7C171.7 379 214.3 378 257.2 376.7C300 375.3 343 373.7 385.8 375.5C428.7 377.3 471.3 382.7 514.2 382.2C557 381.7 600 375.3 642.8 378.3C685.7 381.3 728.3 393.7 771.2 396.3C814 399 857 392 878.5 388.5L900 385L900 451L878.5 451C857 451 814 451 771.2 451C728.3 451 685.7 451 642.8 451C600 451 557 451 514.2 451C471.3 451 428.7 451 385.8 451C343 451 300 451 257.2 451C214.3 451 171.7 451 128.8 451C86 451 43 451 21.5 451L0 451Z" fill="#618bf1"></path><path d="M0 406L21.5 407C43 408 86 410 128.8 410.8C171.7 411.7 214.3 411.3 257.2 412.2C300 413 343 415 385.8 413.7C428.7 412.3 471.3 407.7 514.2 405.7C557 403.7 600 404.3 642.8 404.5C685.7 404.7 728.3 404.3 771.2 405C814 405.7 857 407.3 878.5 408.2L900 409L900 451L878.5 451C857 451 814 451 771.2 451C728.3 451 685.7 451 642.8 451C600 451 557 451 514.2 451C471.3 451 428.7 451 385.8 451C343 451 300 451 257.2 451C214.3 451 171.7 451 128.8 451C86 451 43 451 21.5 451L0 451Z" fill="#6565e1"></path></svg>