<svg id="visual" viewBox="0 0 900 200" width="900" height="200" xmlns="http://www.w3.org/2000/svg" xmlns:xlink="http://www.w3.org/1999/xlink" version="1.1"><rect x="0" y="0" width="900" height="200" fill="#242424"></rect><path d="M0 112L13.7 102.3C27.3 92.7 54.7 73.3 82 59.3C109.3 45.3 136.7 36.7 163.8 44C191 51.3 218 74.7 245.2 84C272.3 93.3 299.7 88.7 327 76.7C354.3 64.7 381.7 45.3 409 39.3C436.3 33.3 463.7 40.7 491 48.7C518.3 56.7 545.7 65.3 573 75.3C600.3 85.3 627.7 96.7 654.8 88.3C682 80 709 52 736.2 41.5C763.3 31 790.7 38 818 52.5C845.3 67 872.7 89 886.3 100L900 111L900 0L886.3 0C872.7 0 845.3 0 818 0C790.7 0 763.3 0 736.2 0C709 0 682 0 654.8 0C627.7 0 600.3 0 573 0C545.7 0 518.3 0 491 0C463.7 0 436.3 0 409 0C381.7 0 354.3 0 327 0C299.7 0 272.3 0 245.2 0C218 0 191 0 163.8 0C136.7 0 109.3 0 82 0C54.7 0 27.3 0 13.7 0L0 0Z" fill="#C6E7FF" stroke-linecap="round" stroke-linejoin="miter"></path></svg>